<svg xmlns="http://www.w3.org/2000/svg" width="627.296" height="626.973" viewBox="0 0 627.296 626.973">
  <g id="Group_1" data-name="Group 1" transform="translate(96.648 -823.416)" opacity="0.35">
    <path id="Path_1" data-name="Path 1" d="M279.66,1384.384a29.817,29.817,0,0,1,10.807-5.749c4.035-1.206,8.2-2.58,12.406-4.085.819-.436,1.618-.9,2.424-1.347.831-.465,1.673-.918,2.491-1.4.873-.513,1.721-1.057,2.579-1.59.795-.494,1.6-.974,2.384-1.484.851-.555,1.677-1.14,2.513-1.713.762-.523,1.534-1.033,2.283-1.571.834-.6,1.642-1.23,2.46-1.848.722-.547,1.455-1.079,2.164-1.64.815-.644,1.6-1.32,2.4-1.984.686-.571,1.384-1.128,2.058-1.713.793-.689,1.559-1.41,2.335-2.119.65-.594,1.313-1.173,1.951-1.781.774-.738,1.521-1.508,2.277-2.266.613-.614,1.238-1.213,1.839-1.841.753-.786,1.478-1.6,2.213-2.412.576-.633,1.165-1.25,1.73-1.9.732-.837,1.436-1.708,2.15-2.567.539-.649,1.092-1.283,1.621-1.945.711-.89,1.393-1.814,2.085-2.727.5-.663,1.019-1.31,1.511-1.986.691-.946,1.351-1.927,2.021-2.9.466-.674.946-1.331,1.4-2.017.67-1.008,1.311-2.051,1.96-3.084.427-.679.869-1.34,1.286-2.029.658-1.085,1.284-2.2,1.918-3.316.382-.668.779-1.319,1.152-2,.651-1.182,1.271-2.4,1.9-3.609.33-.637.675-1.257,1-1.9.667-1.333,1.3-2.7,1.936-4.068.256-.55.528-1.084.779-1.64q1.313-2.9,2.536-5.9c10.708-26.279,16.353-58.2,16.779-94.89q.025-2.294.023-4.573v-.745q-.006-2.18-.034-4.343c0-.277-.009-.554-.013-.831q-.033-2.2-.088-4.38c0-.128-.008-.254-.011-.382q-.057-2.117-.136-4.213c-.007-.2-.014-.406-.022-.608q-.081-2.127-.184-4.233-.02-.422-.041-.841-.1-2.1-.228-4.173c-.012-.2-.025-.4-.037-.6q-.125-2.039-.265-4.054l-.024-.361q-.147-2.076-.312-4.122l-.063-.794q-.162-2-.338-3.96l-.066-.718q-.185-2.019-.38-4.008l-.008-.078q-.2-2-.413-3.961c-.025-.235-.05-.471-.076-.7q-.205-1.885-.423-3.737-.042-.364-.086-.727c-.148-1.254-.3-2.5-.454-3.727-.016-.124-.032-.247-.047-.371q-.224-1.766-.455-3.494c-.024-.18-.048-.362-.072-.541q-.24-1.774-.485-3.505c-.033-.232-.066-.462-.1-.692-.165-1.151-.331-2.291-.5-3.413l-.022-.148a281.4,281.4,0,0,1-9.811,29.592c-24.655,63.6-69.318,110.11-129.14,134.453l-10.727,4.365c-.923.418-1.853.823-2.784,1.225-9,4.379-28.607,12.117-60.184,15.586l-.367.043a308.511,308.511,0,0,1-35.932,2.018h-.015c-57.75,0-113.643-14.5-141.089-22.864q-2.163,4.237-4.324,8.477c-3.935,7.718-7.96,15.612-12.01,23.5,19.663,19.566,36.371,36.28,51.857,51.874,7.279-3.736,14.564-7.449,21.687-11.079l.183-.094q13.837-7.055,27.654-14.148a27.758,27.758,0,0,1,27.051.325,240.526,240.526,0,0,0,45.957,19.082,28.208,28.208,0,0,1,19.535,19.144q4.191,13.1,8.459,26.162l.314.964c2.574,7.916,5.423,16.678,8.229,25.43,12.538-.036,24.684-.055,36.531-.055,12.462,0,24.9.022,37.076.064,2.567-7.985,5.146-15.922,7.667-23.681l.062-.192q4.615-14.206,9.189-28.429a30.816,30.816,0,0,1,4.579-9.044Z" fill="#90d5ac"/>
    <path id="Path_2" data-name="Path 2" d="M530.648,1100.268c-7.949-2.555-15.854-5.122-23.584-7.633l-.211-.069q-14.232-4.625-28.475-9.2a28.577,28.577,0,0,1-19.487-19.769,237.86,237.86,0,0,0-19.081-45.921,27.8,27.8,0,0,1-.219-27.063q6.612-12.855,13.167-25.743c3.98-7.805,8.028-15.743,12.1-23.665-19.942-19.847-36.693-36.6-51.973-51.991-7.3,3.747-14.612,7.474-21.757,11.117l-.77.392q-13.507,6.888-26.995,13.813a29.724,29.724,0,0,1-9.261,3.043l-1.793.985-3.032-.4c-33.313-4.433-64.989-3.912-94.516,1.483-5.742,1.049-11.413,2.261-16.988,3.681q-3.424.871-6.8,1.837a236.034,236.034,0,0,0-78.793,39.429q-1.735,1.324-3.411,2.659c-.352.279-.7.558-1.044.837q-1.156.929-2.288,1.858-.577.474-1.145.949-1.094.91-2.16,1.824c-.345.295-.693.59-1.035.885q-1.3,1.125-2.563,2.248c-.159.142-.323.283-.481.424q-1.493,1.336-2.931,2.669c-.274.253-.54.506-.811.759q-1.027.959-2.029,1.915c-.328.313-.651.626-.974.938q-.919.89-1.816,1.774c-.306.3-.613.605-.915.907q-1,1-1.976,2c-.2.2-.406.411-.605.616q-1.257,1.295-2.462,2.574c-.2.21-.388.417-.583.626q-.911.973-1.794,1.938c-.265.289-.524.576-.784.863q-.772.852-1.521,1.7c-.257.289-.514.578-.767.866q-.8.9-1.562,1.8c-.187.217-.378.436-.562.651q-1.005,1.174-1.961,2.323c42.648-16.256,87.578-17.361,103.005-17.188a319.341,319.341,0,0,1,61.658,5.707c36.97,7.124,66.756,20.053,88.533,38.429l7.75,6.541a22.574,22.574,0,0,1,3.333,2.493c1.005.906,25.1,22.811,49.8,61.907a361.327,361.327,0,0,1,42.388,95.436,31.008,31.008,0,0,1,7.647-3.618q13.561-4.339,27.085-8.761l.5-.163c8.165-2.654,16.55-5.38,24.949-8.075C530.563,1147.9,530.566,1123.687,530.648,1100.268Z" fill="#90d5ac"/>
    <path id="Path_3" data-name="Path 3" d="M60.081,1142.11c-11.689-40.039-11.823-72.677-11.823-74.047v-13.116c-.429-8.337-2.089-68.211,33.039-137.2a29.844,29.844,0,0,1-10.764-3.273q-13.311-6.858-26.656-13.642l-.976-.5c-7.189-3.666-14.484-7.386-21.767-11.123-18.722,18.821-35.82,35.912-51.985,51.967,6.145,11.954,12.234,23.931,18.151,35.568l7.158,14.072c.441.866.861,1.752,1.289,2.662l.4.846a22.737,22.737,0,0,1-.339,20.08l-.451.881c-.419.819-.805,1.573-1.206,2.32a248.674,248.674,0,0,0-18.762,45.035c-.061,1.065-.1,2.121-.14,3.18-.046,1.131-.106,2.265-.131,3.389-.028,1.211-.019,2.412-.022,3.616,0,1.114-.021,2.233,0,3.341.019,1.2.075,2.389.118,3.581.039,1.1.064,2.206.124,3.3.065,1.185.168,2.357.257,3.534.082,1.088.148,2.18.251,3.261.111,1.173.261,2.333.4,3.5.125,1.072.233,2.15.378,3.216.158,1.164.356,2.314.538,3.47.166,1.052.315,2.109.5,3.155.207,1.164.455,2.315.687,3.471.206,1.022.393,2.051.618,3.068.258,1.166.557,2.319.841,3.476.243.992.466,1.99.728,2.975.314,1.18.67,2.346,1.01,3.516.276.948.53,1.9.824,2.845.377,1.211.8,2.407,1.2,3.607.3.888.578,1.783.894,2.664.461,1.285.967,2.553,1.46,3.826.3.783.585,1.574.9,2.353.618,1.52,1.284,3.024,1.951,4.527.23.517.437,1.042.673,1.557q1.38,3.026,2.894,6c.024.048.052.095.076.143q1.477,2.9,3.078,5.754c.319.569.669,1.127,1,1.693.793,1.373,1.582,2.747,2.419,4.1.437.708.908,1.4,1.357,2.107.768,1.2,1.525,2.413,2.329,3.6.47.7.966,1.386,1.449,2.08.572.823,1.133,1.65,1.723,2.466.517.718,1.061,1.426,1.591,2.139.586.786,1.16,1.577,1.761,2.358.563.73,1.152,1.451,1.728,2.177.6.752,1.184,1.509,1.8,2.255s1.227,1.455,1.842,2.182,1.224,1.466,1.856,2.191,1.3,1.446,1.945,2.17,1.266,1.427,1.919,2.134c.681.736,1.388,1.462,2.084,2.192.649.682,1.287,1.369,1.949,2.045.719.734,1.464,1.458,2.2,2.186.669.663,1.325,1.33,2.006,1.988.754.728,1.534,1.446,2.3,2.168.688.646,1.364,1.3,2.064,1.936.8.726,1.615,1.442,2.425,2.162.7.624,1.394,1.254,2.109,1.874.821.711,1.667,1.411,2.5,2.115.734.619,1.456,1.242,2.2,1.855.846.7,1.717,1.38,2.578,2.069.762.609,1.512,1.223,2.285,1.827.878.685,1.781,1.359,2.675,2.038.785.6,1.558,1.2,2.354,1.788.9.668,1.825,1.324,2.739,1.984.818.591,1.624,1.186,2.453,1.771.92.649,1.865,1.287,2.8,1.929.852.584,1.692,1.174,2.555,1.753.939.63,1.9,1.249,2.855,1.872.886.579,1.76,1.163,2.658,1.736.959.612,1.943,1.213,2.916,1.819.912.567,1.812,1.14,2.736,1.7q3.313,2.013,6.634,3.919l.3.173q3.392,1.944,6.779,3.778l.124.067a371.769,371.769,0,0,0,40.12,18.609C89.748,1220.388,70.174,1176.679,60.081,1142.11Z" fill="#90d5ac"/>
    <path id="Path_4" data-name="Path 4" d="M64.224,1245.5c-67.432-40.9-104.252-96.744-107.542-162.515-.261.091-.524.178-.79.263q-13.629,4.361-27.22,8.805l-.64.208c-8.074,2.626-16.366,5.323-24.671,7.987.076,26.052.074,50.264-.009,73.617,7.852,2.526,15.659,5.062,23.292,7.542l.153.05q14.406,4.683,28.827,9.32a28.563,28.563,0,0,1,19.487,19.774A238.011,238.011,0,0,0-6.54,1255.116c38.126,11.525,90.11,23.538,139.631,22.909A386.505,386.505,0,0,1,64.224,1245.5Z" fill="#90d5ac"/>
    <path id="Path_5" data-name="Path 5" d="M140.13,950.355c32.084-24.678,83.116-51.313,155.376-53.626q-2.564-.829-5.151-1.6a28.212,28.212,0,0,1-19.54-19.146q-4.232-13.225-8.542-26.42l-.248-.761c-2.708-8.327-5.478-16.846-8.213-25.375-26.1.076-50.31.073-73.608-.008-2.689,8.362-5.392,16.676-8.034,24.8l-.148.457q-4.457,13.709-8.875,27.429a28.349,28.349,0,0,1-11.066,15.142q-1.294,1.617-2.548,3.23l-.446.569q-1.806,2.339-3.527,4.672l-.25.343c-1.119,1.519-2.2,3.018-3.256,4.516l-.188.267A268.957,268.957,0,0,0,103.38,984.85,256.756,256.756,0,0,1,140.13,950.355Z" fill="#90d5ac"/>
    <path id="Path_6" data-name="Path 6" d="M464.74,1332.732q-5.18-10.109-10.325-20.212l-.333-.652q-7.256-14.225-14.548-28.43a28.249,28.249,0,0,1-2.885-17.977l-.008-.14c-.067-1.123-.141-2.249-.222-3.371-.05-.686-.1-1.368-.154-2.048-.1-1.27-.211-2.543-.33-3.811l-.138-1.474q-.243-2.47-.525-4.909l-.022-.2a294.558,294.558,0,0,0-20.834-78.874l-.121-.291c-.486-1.16-.93-2.2-1.376-3.234-.3-.692-.606-1.4-.916-2.1l-.518-1.168a319.972,319.972,0,0,0-18.01-34.476,485.757,485.757,0,0,1,6.154,79.8q-.078,7.333-.421,14.439c-1.6,33.154-7.522,62.525-17.657,87.473a166.757,166.757,0,0,1-26.949,45.294,31.483,31.483,0,0,1,9.213,3.127q14.725,7.581,29.481,15.094l1.679.858q8.946,4.568,17.886,9.144C431.378,1366.007,448.441,1348.946,464.74,1332.732Z" fill="#90d5ac"/>
  </g>
</svg>
